<svg xmlns="http://www.w3.org/2000/svg" viewBox="0 0 404.742 404.742" style="enable-background:new 0 0 404.742 404.742" xml:space="preserve"><path d="M337.242 134.651c-12.284 0-34.579-.008-47.5-.013v-9.004c0-16.542-13.458-30-30-30h-85.188c-15.218-30.049-46.407-50.697-82.33-50.697C41.372 44.936 0 86.308 0 137.161c0 31.367 15.745 59.122 39.742 75.79v80.737c0 16.542 13.458 30 30 30h.884c4.135 20.573 22.343 36.118 44.116 36.118s39.981-15.545 44.116-36.118h100.884c7.678 0 14.689-2.902 20-7.664a29.915 29.915 0 0 0 14.802 7.204c3.955 20.8 22.264 36.578 44.198 36.578 22.188 0 40.664-16.146 44.328-37.303 12.501-3.619 21.672-15.162 21.672-28.815v-72.054c0-51.113-43.79-86.983-67.5-86.983zM20 137.161c0-39.825 32.4-72.224 72.225-72.224 39.824 0 72.224 32.399 72.224 72.224s-32.399 72.224-72.224 72.224S20 176.985 20 137.161zm94.742 202.645c-13.785 0-25-11.215-25-25s11.215-25 25-25 25 11.215 25 25-11.215 25-25 25zm224 0c-13.785 0-25-11.215-25-25s11.215-25 25-25 25 11.215 25 25-11.215 25-25 25zm46-46.118c0 2.878-1.229 5.468-3.182 7.294-5.848-18.069-22.828-31.176-42.818-31.176-20.614 0-38.023 13.938-43.329 32.882-3.349-1.618-5.671-5.039-5.671-9v-139.05l29 .01v51.486c0 16.542 13.458 30 30 30h36v57.554z"/><path d="M92.225 147.161h27.302c5.523 0 10-4.477 10-10s-4.477-10-10-10h-17.302V91.5c0-5.523-4.477-10-10-10s-10 4.477-10 10v45.66c0 5.524 4.477 10.001 10 10.001z"/></svg>