<svg width="64" height="64" style="enable-background:new 0 0 64 64" xml:space="preserve" xmlns="http://www.w3.org/2000/svg"><path d="M60 35c-.395 0-.77.081-1.116.22A2.995 2.995 0 0 0 56 33c-.395 0-.77.081-1.116.22A2.995 2.995 0 0 0 52 31c-.352 0-.686.072-1 .184v-1.543A12.943 12.943 0 0 0 61 17c0-2.932-.987-5.631-2.631-7.808l2.359-2.507-1.457-1.371-2.227 2.367A12.947 12.947 0 0 0 48 4c-7.168 0-13 5.832-13 13a12.945 12.945 0 0 0 10 12.642v17.937a1.398 1.398 0 0 1-.374-.725l-1.317-7.241A3.178 3.178 0 0 0 40.181 37 3.184 3.184 0 0 0 37 40.18v.639c0 .174.015.349.043.523l1.8 10.794a5.016 5.016 0 0 0 1.026 2.301l2.473 3.091c.425.532.658 1.197.658 1.875V63h16v-3.597c0-.678.233-1.344.658-1.875l2.246-2.809A5.02 5.02 0 0 0 63 51.597V38c0-1.654-1.346-3-3-3zM37 17c0-6.065 4.935-11 11-11 2.985 0 5.692 1.199 7.675 3.135L43.979 21.564l-2.271-2.271-1.414 1.414 3.729 3.729L56.98 10.668A10.928 10.928 0 0 1 59 17c0 4.99-3.302 9.262-8 10.58V26c0-1.654-1.346-3-3-3s-3 1.346-3 3v1.58c-4.698-1.318-8-5.59-8-10.58zm24 34.597c0 .678-.233 1.344-.658 1.875l-2.246 2.809A5.02 5.02 0 0 0 57 59.403V61H45v-1.597c0-1.13-.39-2.24-1.096-3.124l-2.474-3.091a3.004 3.004 0 0 1-.615-1.381l-1.8-10.792a1.274 1.274 0 0 1-.015-.196v-.639a1.181 1.181 0 0 1 2.342-.21l1.316 7.241A3.395 3.395 0 0 0 46 50h1V26a1.001 1.001 0 0 1 2 0v16h2v-8a1.001 1.001 0 0 1 2 0v8h2v-6a1.001 1.001 0 0 1 2 0v6h2v-4a1.001 1.001 0 0 1 2 0v13.597zM26 1H8C4.141 1 1 4.14 1 8v48c0 3.86 3.141 7 7 7h18c3.859 0 7-3.14 7-7V8c0-3.86-3.141-7-7-7zm5 55c0 2.757-2.243 5-5 5H8c-2.757 0-5-2.243-5-5V8c0-2.757 2.243-5 5-5h18c2.757 0 5 2.243 5 5v48z"/><path d="m17 22.766-3.132 6.256-7.039 1.008 5.095 4.895-1.199 6.891L17 38.564l6.275 3.252-1.199-6.891 5.095-4.895-7.039-1.008L17 22.766zm2.924 11.454.689 3.964L17 36.311l-3.613 1.873.689-3.964-2.905-2.792 4.018-.576L17 27.234l1.812 3.619 4.018.576-2.906 2.791z"/><path d="m17 41.783-2.82 5.579-6.365.903 4.607 4.386-1.081 6.157L17 55.903l5.659 2.905-1.081-6.157 4.607-4.386-6.365-.903L17 41.783zm2.422 10.158.571 3.25L17 53.655l-2.993 1.537.571-3.25-2.393-2.276 3.309-.469L17 46.217l1.506 2.979 3.309.469-2.393 2.276zM11.341 21.808 17 18.903l5.659 2.905-1.081-6.157 4.607-4.386-6.365-.903L17 4.783l-2.82 5.579-6.365.903 4.607 4.386-1.081 6.157zm.845-9.142 3.309-.469L17 9.217l1.506 2.979 3.309.469-2.393 2.276.571 3.25L17 16.655l-2.993 1.537.571-3.25-2.392-2.276z"/></svg>