<svg aria-hidden="true" style="position: absolute; width: 0; height: 0; overflow: hidden;" version="1.1" xmlns="http://www.w3.org/2000/svg" xmlns:xlink="http://www.w3.org/1999/xlink">
<defs>
<symbol id="icon-delivery" viewBox="0 0 32 32">
<path d="M26.663 10.646c-0.971 0-2.734-0.001-3.755-0.001v-0.712c0-1.308-1.064-2.372-2.372-2.372h-6.735c-1.203-2.376-3.669-4.008-6.509-4.008-4.021-0-7.291 3.271-7.291 7.291 0 2.48 1.245 4.674 3.142 5.992v6.383c0 1.308 1.064 2.372 2.372 2.372h0.070c0.327 1.627 1.766 2.856 3.488 2.856s3.161-1.229 3.488-2.856h7.976c0.607 0 1.161-0.229 1.581-0.606 0.317 0.286 0.715 0.488 1.156 0.567l0.014 0.002c0.313 1.645 1.76 2.892 3.494 2.892 1.754 0 3.215-1.277 3.505-2.949 0.988-0.286 1.713-1.199 1.713-2.278v-5.697c0-4.041-3.462-6.877-5.337-6.877zM1.581 10.844c0-3.149 2.562-5.71 5.71-5.71s5.71 2.562 5.71 5.71-2.562 5.71-5.71 5.71-5.71-2.562-5.71-5.71zM9.072 26.866c-1.090 0-1.977-0.887-1.977-1.977s0.887-1.977 1.977-1.977 1.977 0.887 1.977 1.977-0.887 1.977-1.977 1.977zM26.782 26.866c-1.090 0-1.977-0.887-1.977-1.977s0.887-1.977 1.977-1.977 1.977 0.887 1.977 1.977-0.887 1.977-1.977 1.977zM30.419 23.22c0 0.228-0.097 0.432-0.252 0.577-0.462-1.429-1.805-2.465-3.385-2.465-1.63 0-3.006 1.102-3.426 2.6-0.265-0.128-0.448-0.398-0.448-0.712v-10.994l2.293 0.001v4.071c0 1.308 1.064 2.372 2.372 2.372h2.846v4.55z"></path>
<path d="M7.292 11.635h2.159c0.437 0 0.791-0.354 0.791-0.791s-0.354-0.791-0.791-0.791h-1.368v-2.819c0-0.437-0.354-0.791-0.791-0.791s-0.791 0.354-0.791 0.791v3.61c0 0.437 0.354 0.791 0.791 0.791z"></path>
</symbol>
<symbol id="icon-guarantee" viewBox="0 0 32 32">
<path d="M31.299 14.475c-0.218-0.29-0.445-0.589-0.48-0.822-0.039-0.248 0.086-0.611 0.207-0.962 0.176-0.509 0.375-1.086 0.196-1.636-0.181-0.56-0.688-0.914-1.134-1.226-0.3-0.21-0.61-0.426-0.719-0.64-0.112-0.219-0.105-0.601-0.099-0.97 0.009-0.541 0.019-1.154-0.323-1.625-0.344-0.473-0.932-0.652-1.451-0.811-0.352-0.107-0.715-0.218-0.887-0.39s-0.283-0.536-0.39-0.888c-0.158-0.518-0.337-1.107-0.811-1.45-0.471-0.343-1.084-0.333-1.624-0.324-0.369 0.007-0.752 0.013-0.97-0.099-0.214-0.109-0.43-0.419-0.64-0.719-0.311-0.446-0.665-0.952-1.226-1.134-0.55-0.178-1.128 0.020-1.638 0.195-0.351 0.121-0.715 0.246-0.962 0.208-0.233-0.036-0.532-0.262-0.822-0.48-0.436-0.329-0.931-0.702-1.525-0.702s-1.089 0.373-1.526 0.702c-0.29 0.219-0.589 0.444-0.822 0.48-0.246 0.040-0.611-0.087-0.962-0.208-0.509-0.175-1.087-0.374-1.636-0.196-0.56 0.182-0.914 0.688-1.226 1.134-0.21 0.3-0.426 0.61-0.64 0.719-0.219 0.112-0.601 0.105-0.97 0.099-0.541-0.010-1.154-0.019-1.625 0.324-0.473 0.344-0.652 0.932-0.811 1.45-0.107 0.352-0.218 0.716-0.39 0.888s-0.536 0.283-0.888 0.391c-0.518 0.158-1.106 0.338-1.45 0.811-0.343 0.471-0.333 1.083-0.324 1.625 0.006 0.37 0.012 0.751-0.099 0.97-0.109 0.213-0.419 0.43-0.719 0.639-0.446 0.312-0.952 0.665-1.135 1.226-0.178 0.55 0.020 1.127 0.196 1.637 0.121 0.351 0.246 0.714 0.208 0.962-0.036 0.232-0.262 0.532-0.48 0.822-0.33 0.437-0.703 0.931-0.703 1.526s0.373 1.089 0.702 1.526c0.219 0.29 0.444 0.59 0.481 0.822l0.988-0.155c-0.075-0.48-0.377-0.881-0.67-1.268-0.246-0.326-0.5-0.664-0.5-0.924s0.254-0.597 0.5-0.924c0.292-0.388 0.595-0.789 0.67-1.268 0.078-0.493-0.089-0.976-0.25-1.443-0.131-0.379-0.266-0.771-0.19-1.002 0.079-0.242 0.423-0.482 0.756-0.715 0.4-0.28 0.814-0.569 1.037-1.005 0.225-0.441 0.217-0.95 0.208-1.441-0.006-0.403-0.013-0.819 0.132-1.019 0.148-0.202 0.547-0.324 0.934-0.442 0.469-0.144 0.955-0.292 1.303-0.64s0.497-0.833 0.639-1.303c0.118-0.386 0.239-0.787 0.442-0.934 0.2-0.146 0.617-0.139 1.019-0.132 0.492 0.008 1 0.017 1.441-0.208 0.436-0.223 0.725-0.636 1.005-1.036 0.232-0.333 0.473-0.677 0.715-0.756 0.231-0.076 0.623 0.060 1.002 0.19 0.467 0.161 0.95 0.327 1.443 0.25 0.479-0.075 0.88-0.377 1.268-0.67 0.326-0.246 0.664-0.5 0.923-0.5s0.597 0.254 0.924 0.5c0.388 0.292 0.789 0.595 1.268 0.67 0.492 0.076 0.976-0.089 1.443-0.25 0.379-0.131 0.77-0.266 1.003-0.19 0.241 0.079 0.482 0.422 0.715 0.756 0.279 0.4 0.569 0.814 1.005 1.037 0.441 0.225 0.951 0.218 1.442 0.208 0.403-0.006 0.82-0.014 1.020 0.132 0.203 0.148 0.324 0.547 0.442 0.934 0.143 0.469 0.291 0.955 0.64 1.303s0.834 0.497 1.302 0.639c0.386 0.118 0.786 0.24 0.933 0.442 0.146 0.2 0.139 0.617 0.133 1.019-0.008 0.492-0.016 1.001 0.209 1.441 0.223 0.436 0.636 0.725 1.036 1.005 0.333 0.233 0.677 0.473 0.756 0.716 0.075 0.232-0.059 0.623-0.19 1.002-0.161 0.467-0.327 0.95-0.25 1.443 0.076 0.479 0.378 0.88 0.67 1.268 0.245 0.327 0.5 0.665 0.5 0.924s-0.255 0.597-0.5 0.924c-0.292 0.387-0.594 0.788-0.67 1.268l0.988 0.155c0.036-0.233 0.262-0.532 0.48-0.822 0.328-0.436 0.702-0.931 0.702-1.526s-0.373-1.089-0.701-1.526zM27.202 25.261c-0.469 0.143-0.954 0.291-1.302 0.639s-0.497 0.834-0.64 1.302c-0.117 0.387-0.239 0.786-0.442 0.933-0.2 0.145-0.619 0.139-1.019 0.133-0.492-0.008-1-0.016-1.442 0.209-0.436 0.223-0.724 0.636-1.004 1.036-0.233 0.333-0.474 0.677-0.715 0.756-0.232 0.076-0.623-0.059-1.002-0.19-0.467-0.16-0.951-0.324-1.443-0.25-0.48 0.076-0.881 0.378-1.268 0.67-0.326 0.246-0.664 0.5-0.924 0.5s-0.597-0.255-0.924-0.5c-0.387-0.292-0.789-0.594-1.268-0.67-0.492-0.074-0.976 0.090-1.443 0.25-0.379 0.131-0.77 0.266-1.002 0.19-0.242-0.078-0.482-0.423-0.715-0.756-0.28-0.401-0.569-0.814-1.005-1.037-0.441-0.225-0.95-0.217-1.441-0.209-0.403 0.005-0.819 0.014-1.020-0.133-0.202-0.148-0.325-0.547-0.442-0.933-0.144-0.469-0.292-0.954-0.64-1.302s-0.833-0.497-1.303-0.64c-0.386-0.117-0.787-0.239-0.933-0.442l-0.808 0.589c0.344 0.473 0.932 0.652 1.45 0.81 0.352 0.108 0.716 0.218 0.888 0.39s0.283 0.535 0.391 0.887c0.158 0.518 0.338 1.106 0.811 1.45 0.471 0.343 1.083 0.332 1.625 0.323 0.368-0.004 0.751-0.012 0.97 0.099 0.213 0.109 0.43 0.419 0.639 0.719 0.312 0.447 0.665 0.952 1.226 1.134 0.55 0.177 1.127-0.020 1.636-0.196 0.351-0.12 0.716-0.25 0.962-0.207 0.232 0.036 0.532 0.262 0.822 0.48 0.437 0.329 0.931 0.702 1.525 0.702s1.089-0.373 1.526-0.701c0.29-0.218 0.59-0.445 0.822-0.48 0.244-0.043 0.611 0.086 0.962 0.207 0.51 0.176 1.087 0.375 1.636 0.196 0.561-0.181 0.914-0.688 1.226-1.134 0.209-0.299 0.427-0.61 0.639-0.718 0.219-0.113 0.6-0.107 0.97-0.099 0.538 0.009 1.153 0.019 1.625-0.323 0.473-0.344 0.652-0.931 0.81-1.45 0.108-0.352 0.218-0.716 0.39-0.887s0.535-0.283 0.887-0.39c0.518-0.158 1.107-0.338 1.451-0.811l-0.808-0.588c-0.146 0.202-0.546 0.323-0.933 0.442zM4 23v-1c0-0.276-0.224-0.5-0.5-0.5v0h-1v1h0.5v0.5c-0.012 0.267-0.231 0.478-0.5 0.478s-0.488-0.212-0.5-0.477l-0-0.001v-3c0.012-0.267 0.231-0.478 0.5-0.478s0.488 0.212 0.5 0.477l0 0.001v0.5h1v-0.5c0-0.827-0.673-1.5-1.5-1.5s-1.5 0.673-1.5 1.5v3c0 0.827 0.673 1.5 1.5 1.5s1.5-0.673 1.5-1.5zM4.5 18.5v4.5c0 0.827 0.673 1.5 1.5 1.5s1.5-0.673 1.5-1.5v-4.5h-1v4.5c-0.012 0.267-0.231 0.478-0.5 0.478s-0.488-0.212-0.5-0.477l-0-0.001v-4.5h-1zM8 20v4.5h1v-1h1v1h1v-4.5c0-0.827-0.673-1.5-1.5-1.5s-1.5 0.673-1.5 1.5zM10 20v2.5h-1v-2.5c0.012-0.267 0.231-0.478 0.5-0.478s0.488 0.212 0.5 0.477l0 0.001zM15 20v4.5h1v-1h1v1h1v-4.5c0-0.827-0.673-1.5-1.5-1.5s-1.5 0.673-1.5 1.5zM16.5 19.5c0.276 0 0.5 0.224 0.5 0.5v0 2.5h-1v-2.5c0-0.276 0.224-0.5 0.5-0.5zM11.5 19v5.5h1v-1.575l1.11 1.387c0.092 0.115 0.233 0.188 0.39 0.188 0 0 0 0 0 0h0.5v-1h-0.26l-1.217-1.521c0.841-0.138 1.476-0.859 1.477-1.728v-0c0-0.965-0.785-1.75-1.75-1.75h-0.75c-0.276 0-0.5 0.224-0.5 0.5v0zM12.5 19.5h0.25c0.413 0 0.75 0.337 0.75 0.75s-0.337 0.75-0.75 0.75h-0.25v-1.5zM20.5 21.404l-1.035-2.59c-0.077-0.186-0.257-0.314-0.467-0.314-0.032 0-0.064 0.003-0.095 0.009l0.003-0c-0.233 0.046-0.405 0.248-0.405 0.491 0 0 0 0 0 0v0 5.5h1v-2.904l1.035 2.59c0.076 0.185 0.255 0.313 0.464 0.313 0.276 0 0.499-0.223 0.5-0.498v-5.5h-1v2.904zM24 19.5h1v-1h-3v1h1v5h1v-5zM28 19.5v-1h-2c-0.276 0-0.5 0.224-0.5 0.5v0 5c0 0.276 0.224 0.5 0.5 0.5v0h2v-1h-1.5v-1.5h1.5v-1h-1.5v-1.5h1.5zM28.5 19v5c0 0.276 0.224 0.5 0.5 0.5v0h2v-1h-1.5v-1.5h1.5v-1h-1.5v-1.5h1.5v-1h-2c-0.276 0-0.5 0.224-0.5 0.5v0z"></path>
<path d="M28.5 16c0-6.893-5.608-12.5-12.5-12.5s-12.5 5.607-12.5 12.5c0 0.503 0.034 1.029 0.1 1.562l0.992-0.124c-0.058-0.431-0.091-0.93-0.093-1.436v-0.002c0-6.341 5.159-11.5 11.5-11.5s11.5 5.159 11.5 11.5c0 0.462-0.031 0.946-0.093 1.438l0.992 0.124c0.067-0.533 0.101-1.058 0.101-1.562zM23.634 25.895l-0.611-0.791c-1.908 1.494-4.343 2.396-6.988 2.396-0.012 0-0.024-0-0.036-0h0.002c-0.010 0-0.022 0-0.034 0-2.645 0-5.080-0.902-7.013-2.414l0.025 0.019-0.611 0.791c2.206 1.704 4.845 2.605 7.633 2.605s5.428-0.901 7.633-2.605z"></path>
<path d="M11 10.5h-1v1h0.5v5h1v-5.5c0-0.276-0.224-0.5-0.5-0.5v0zM13.75 10.5c-0.965 0-1.75 0.785-1.75 1.75v2.5c0 0.965 0.785 1.75 1.75 1.75s1.75-0.785 1.75-1.75v-2.5c0-0.965-0.785-1.75-1.75-1.75zM14.5 14.75c0 0.413-0.337 0.75-0.75 0.75s-0.75-0.337-0.75-0.75v-2.5c0-0.413 0.337-0.75 0.75-0.75s0.75 0.337 0.75 0.75v2.5zM17.75 10.5c-0.965 0-1.75 0.785-1.75 1.75v2.5c0 0.965 0.785 1.75 1.75 1.75s1.75-0.785 1.75-1.75v-2.5c0-0.965-0.785-1.75-1.75-1.75zM18.5 14.75c0 0.413-0.337 0.75-0.75 0.75s-0.75-0.337-0.75-0.75v-2.5c0-0.413 0.337-0.75 0.75-0.75s0.75 0.337 0.75 0.75v2.5zM21.052 15.777l2-4 0.895 0.447-2 4-0.895-0.447zM20.5 12.5h1v1h-1zM23.5 14.5h1v1h-1z"></path>
</symbol>
<symbol id="icon-product-best" viewBox="0 0 32 32">
<path d="M30 17.5c-0.198 0-0.385 0.041-0.558 0.11-0.176-0.643-0.755-1.108-1.442-1.11h-0c-0.198 0-0.385 0.041-0.558 0.11-0.176-0.643-0.755-1.108-1.442-1.11h-0c-0.176 0-0.343 0.036-0.5 0.092v-0.771c2.887-0.691 5-3.25 5-6.302 0-0.007 0-0.013-0-0.020v0.001c0-1.466-0.494-2.816-1.316-3.904l1.18-1.253-0.729-0.686-1.113 1.183c-1.166-1.138-2.761-1.841-4.521-1.841-0 0-0.001 0-0.001 0h0c-3.584 0-6.5 2.916-6.5 6.5-0 0.005-0 0.012-0 0.018 0 3.052 2.113 5.611 4.956 6.294l0.044 0.009v8.969c-0.094-0.096-0.16-0.22-0.186-0.358l-0.001-0.004-0.659-3.62c-0.139-0.748-0.786-1.306-1.564-1.306-0 0-0 0-0 0h0c-0.878 0.001-1.589 0.712-1.59 1.59v0.32c0 0.087 0.008 0.174 0.021 0.262l0.9 5.397c0.076 0.442 0.257 0.831 0.517 1.155l-0.004-0.005 1.236 1.546c0.212 0.266 0.329 0.599 0.329 0.938v1.799h8v-1.799c0-0.339 0.116-0.672 0.329-0.938l1.123-1.404c0.341-0.424 0.547-0.968 0.548-1.561v-6.799c0-0.827-0.673-1.5-1.5-1.5zM18.5 8.5c0-3.033 2.468-5.5 5.5-5.5 1.492 0 2.846 0.599 3.837 1.567l-5.848 6.215-1.136-1.136-0.707 0.707 1.864 1.864 6.479-6.884c0.632 0.88 1.010 1.978 1.010 3.165 0 0 0 0.001 0 0.001v-0c0 2.495-1.651 4.631-4 5.29v-0.79c0-0.827-0.673-1.5-1.5-1.5s-1.5 0.673-1.5 1.5v0.79c-2.349-0.659-4-2.795-4-5.29zM30.5 25.799c0 0.339-0.116 0.672-0.329 0.938l-1.123 1.404c-0.341 0.424-0.547 0.968-0.548 1.561v0.799h-6v-0.799c0-0.565-0.195-1.12-0.548-1.562l-1.237-1.546c-0.154-0.191-0.262-0.425-0.306-0.682l-0.001-0.009-0.9-5.396c-0.005-0.029-0.008-0.063-0.008-0.097 0-0 0-0 0-0.001v0-0.32c0.002-0.325 0.265-0.587 0.59-0.587 0.288 0 0.528 0.206 0.58 0.479l0.001 0.004 0.658 3.62c0.149 0.798 0.84 1.395 1.67 1.395 0 0 0.001 0 0.001 0h0.5v-12c0.012-0.267 0.231-0.478 0.5-0.478s0.488 0.211 0.5 0.477l0 0.001v8h1v-4c0.012-0.267 0.231-0.478 0.5-0.478s0.488 0.212 0.5 0.477l0 0.001v4h1v-3c0.012-0.267 0.231-0.478 0.5-0.478s0.488 0.212 0.5 0.477l0 0.001v3h1v-2c0.012-0.267 0.231-0.478 0.5-0.478s0.488 0.212 0.5 0.477l0 0.001v6.799zM13 0.5h-9c-1.929 0-3.5 1.57-3.5 3.5v24c0 1.93 1.571 3.5 3.5 3.5h9c1.93 0 3.5-1.57 3.5-3.5v-24c0-1.93-1.57-3.5-3.5-3.5zM15.5 28c0 1.378-1.121 2.5-2.5 2.5h-9c-1.378 0-2.5-1.122-2.5-2.5v-24c0-1.378 1.122-2.5 2.5-2.5h9c1.379 0 2.5 1.122 2.5 2.5v24z"></path>
<path d="M8.5 11.383l-1.566 3.128-3.519 0.504 2.547 2.447-0.599 3.445 3.138-1.626 3.137 1.626-0.6-3.445 2.547-2.447-3.519-0.504-1.566-3.128zM9.962 17.11l0.345 1.982-1.806-0.936-1.806 0.936 0.345-1.982-1.452-1.396 2.009-0.288 0.905-1.809 0.906 1.809 2.009 0.288-1.453 1.396z"></path>
<path d="M8.5 20.892l-1.41 2.79-3.183 0.451 2.304 2.193-0.54 3.079 2.829-1.453 2.829 1.453-0.54-3.078 2.303-2.193-3.182-0.451-1.41-2.79zM9.711 25.971l0.286 1.625-1.496-0.768-1.497 0.768 0.285-1.625-1.197-1.138 1.655-0.235 0.753-1.49 0.753 1.489 1.655 0.235-1.197 1.138zM5.67 10.904l2.83-1.453 2.829 1.453-0.54-3.079 2.303-2.193-3.182-0.452-1.41-2.789-1.41 2.789-3.183 0.452 2.304 2.193-0.54 3.079zM6.093 6.333l1.655-0.234 0.752-1.49 0.753 1.49 1.655 0.234-1.197 1.138 0.286 1.625-1.496-0.768-1.497 0.768 0.285-1.625-1.196-1.138z"></path>
</symbol>
</defs>
</svg>
